<svg xmlns="http://www.w3.org/2000/svg" viewBox="0 0 74.02 43.72">

    <symbol id="arrow" viewBox="0 0 74.02 43.72">
        <g id="Calque_2" data-name="Calque 2">
            <g id="Calque_1-2" data-name="Calque 1">
                <path d="M37.72,43.72A6,6,0,0,1,33.48,42L1.76,10.24a6,6,0,0,1,8.48-8.49L37.72,29.23,63.78,3.17a6,6,0,0,1,8.48,8.49L42,42A6,6,0,0,1,37.72,43.72Z"/>
            </g>
        </g>
    </symbol>

    <symbol id="passengers" viewBox="0 0 66.75 59.5">
        <g id="Calque_2" data-name="Calque 2">
            <g id="Calque_1-2" data-name="Calque 1">
                <circle cx="20.25" cy="10" r="10"/>
                <circle cx="50.5" cy="10" r="8"/>
            </g>
            <g id="Calque_2-2" data-name="Calque 2">
                <path d="M32.57,57.38c-3.45,1.74-8.15,2.12-13.32,2.12C8.62,59.5,0,57.9,0,46.19S8.62,25,19.25,25a18.33,18.33,0,0,1,13.84,6.48,24.32,24.32,0,0,0-4.84,14.71C28.25,51.62,30,55.13,32.57,57.38Z"/>
                <path d="M66.75,46.19c0,9.51-6.06,11.31-17.25,11.31-6.16,0-10.77-.55-13.66-2.63-2.37-1.69-3.59-4.41-3.59-8.68a20.48,20.48,0,0,1,3.3-11.27A16.75,16.75,0,0,1,49.5,27C59,27,66.75,35.61,66.75,46.19Z"/>
            </g>
        </g>
    </symbol>

    <symbol id="user" viewBox="0 0 84 84">
        <g id="Calque_2" data-name="Calque 2">
            <g id="Calque_2-2" data-name="Calque 2">
                <path d="M42,0A42,42,0,1,0,84,42,42,42,0,0,0,42,0Zm0,76a33.77,33.77,0,0,1-16-4,18.91,18.91,0,0,1-.55-4.71c0-7.23,3.32-13.55,8.28-17h0a16.45,16.45,0,0,0,17-.31C56,53.37,59.5,59.87,59.5,67.32a19.78,19.78,0,0,1-.4,4.07A33.81,33.81,0,0,1,42,76ZM33.5,36a8.5,8.5,0,0,1,17,0A8.5,8.5,0,0,1,35,40.79,8.51,8.51,0,0,1,33.5,36ZM67.38,64.62a28.42,28.42,0,0,0-11-20.46A16.33,16.33,0,0,0,58.5,36,16.5,16.5,0,1,0,28,44.7,28.65,28.65,0,0,0,17.55,65.62a34,34,0,1,1,49.83-1Z"/>
            </g>
        </g>
    </symbol>
</svg>