<svg xmlns="http://www.w3.org/2000/svg" viewBox="0 0 74.02 43.72">

  <symbol id="arrow" viewBox="0 0 74.02 43.72">
    <g id="Calque_2" data-name="Calque 2">
    <g id="Calque_1-2" data-name="Calque 1">
      <path d="M37.72,43.72A6,6,0,0,1,33.48,42L1.76,10.24a6,6,0,0,1,8.48-8.49L37.72,29.23,63.78,3.17a6,6,0,0,1,8.48,8.49L42,42A6,6,0,0,1,37.72,43.72Z"/>
    </g>
  </g>
  </symbol>

  <symbol id="passengers" viewBox="0 0 66.75 59.5">
    <g id="Calque_2" data-name="Calque 2">
      <g id="Calque_1-2" data-name="Calque 1">
        <circle cx="20.25" cy="10" r="10" />
        <circle cx="50.5" cy="10" r="8"/>
      </g>
      <g id="Calque_2-2" data-name="Calque 2">
        <path d="M32.57,57.38c-3.45,1.74-8.15,2.12-13.32,2.12C8.62,59.5,0,57.9,0,46.19S8.62,25,19.25,25a18.33,18.33,0,0,1,13.84,6.48,24.32,24.32,0,0,0-4.84,14.71C28.25,51.62,30,55.13,32.57,57.38Z"/>
        <path d="M66.75,46.19c0,9.51-6.06,11.31-17.25,11.31-6.16,0-10.77-.55-13.66-2.63-2.37-1.69-3.59-4.41-3.59-8.68a20.48,20.48,0,0,1,3.3-11.27A16.75,16.75,0,0,1,49.5,27C59,27,66.75,35.61,66.75,46.19Z"/>
      </g>
    </g>
  </symbol>

  <symbol id="logo" viewBox="0 0 459 84">
    <g>
	<path d="M108.7,67V22.7c0-0.7,0.3-1,1-1h17.7c3.3,0,5.9,0.9,7.8,2.8c1.9,1.9,2.8,4.5,2.8,7.8v25c0,3.3-0.9,5.9-2.8,7.8
		c-1.9,1.9-4.5,2.8-7.8,2.8h-17.7C109,68,108.7,67.6,108.7,67z M114.7,63.4h12.1c4,0,6-2.1,6-6.3V32.6c0-4.2-2-6.3-6-6.3h-12.1
		c-0.5,0-0.7,0.2-0.7,0.6v35.8C113.9,63.2,114.2,63.4,114.7,63.4z"/>
	<path d="M161.5,22.7V67c0,0.7-0.3,1-1,1h-3.2c-0.7,0-1-0.3-1-1V22.7c0-0.7,0.3-1,1-1h3.2C161.2,21.7,161.5,22,161.5,22.7z"/>
	<path d="M199,68h-8.6c-3.3,0-5.9-0.9-7.8-2.8c-1.9-1.9-2.8-4.5-2.8-7.8v-25c0-3.4,0.9-6,2.8-7.8c1.9-1.9,4.5-2.8,7.8-2.8h8.6
		c3.3,0,5.9,0.9,7.8,2.8c1.9,1.9,2.8,4.5,2.8,7.8v25c0,3.3-0.9,5.9-2.8,7.8C204.9,67,202.3,68,199,68z M191,63.4h7.3
		c4,0,6-2.1,6-6.3V32.6c0-4.2-2-6.3-6-6.3H191c-4,0-6,2.1-6,6.3v24.6C185,61.3,187,63.4,191,63.4z"/>
	<path d="M231.7,68h-3.2c-0.7,0-1-0.3-1-1V22.7c0-0.7,0.3-1,1-1h3c0.6,0,1,0.2,1.2,0.6l19.9,34.9h0.3V22.7c0-0.7,0.3-1,1-1h3.2
		c0.7,0,1,0.3,1,1V67c0,0.7-0.3,1-1,1h-2.7c-0.5,0-1-0.3-1.5-0.9L233,32.5h-0.3V67C232.7,67.6,232.3,68,231.7,68z"/>
	<path d="M290.4,68h-3.2c-0.7,0-1-0.3-1-1V50.6l-13.7-27.9c-0.1-0.3-0.1-0.6,0-0.8c0.1-0.2,0.4-0.3,0.6-0.3h4c0.5,0,0.9,0.3,1.2,1
		l10.3,21.8h0.4l10.2-21.8c0.2-0.7,0.6-1,1.2-1h4.1c0.8,0,1,0.4,0.6,1.1l-13.8,27.9V67C291.4,67.6,291.1,68,290.4,68z"/>
	<path d="M319.2,57.3V55c0-0.7,0.3-1,1-1h3.2c0.7,0,1,0.3,1,1v1.9c0,4.3,2.1,6.5,6.4,6.5h6.3c4.3,0,6.4-2.2,6.4-6.6v-2.4
		c0-3.5-2.9-5.7-8.6-6.8c-2.4-0.4-4.8-0.9-7.2-1.5c-2.4-0.6-4.4-1.7-6.1-3.3c-1.7-1.7-2.5-3.9-2.5-6.8v-3.5c0-3.3,0.9-5.9,2.8-7.8
		c1.9-1.9,4.5-2.8,7.8-2.8h8c3.3,0,5.9,0.9,7.8,2.8c1.9,1.9,2.9,4.5,2.9,7.8v1.8c0,0.7-0.3,1.1-0.9,1.1h-3.3c-0.6,0-0.9-0.4-0.9-1.1
		v-1.3c0-4.4-2.1-6.6-6.4-6.6h-6.1c-4.3,0-6.4,2.3-6.4,6.8V36c0,2.4,1.6,4.1,4.8,5c1.4,0.4,3,0.7,4.8,1c1.7,0.3,3.5,0.7,5.2,1.2
		c1.8,0.5,3.3,1.1,4.8,1.9c1.4,0.7,2.6,1.9,3.5,3.4c0.9,1.5,1.3,3.3,1.3,5.5v3.2c0,3.3-1,5.9-2.9,7.8c-1.9,1.9-4.5,2.8-7.8,2.8h-8.3
		c-3.3,0-5.9-0.9-7.8-2.8C320.2,63.2,319.2,60.6,319.2,57.3z"/>
	<path d="M385.4,68h-8.6c-3.3,0-5.9-0.9-7.8-2.8s-2.8-4.5-2.8-7.8v-25c0-3.4,0.9-6,2.8-7.8c1.9-1.9,4.5-2.8,7.8-2.8h8.6
		c3.3,0,5.9,0.9,7.8,2.8c1.9,1.9,2.8,4.5,2.8,7.8v25c0,3.3-0.9,5.9-2.8,7.8C391.3,67,388.7,68,385.4,68z M377.4,63.4h7.3
		c4,0,6-2.1,6-6.3V32.6c0-4.2-2-6.3-6-6.3h-7.3c-4,0-6,2.1-6,6.3v24.6C371.4,61.3,373.4,63.4,377.4,63.4z"/>
	<path d="M413.4,57.3V55c0-0.7,0.3-1,1-1h3.2c0.7,0,1,0.3,1,1v1.9c0,4.3,2.1,6.5,6.4,6.5h6.3c4.3,0,6.4-2.2,6.4-6.6v-2.4
		c0-3.5-2.9-5.7-8.6-6.8c-2.4-0.4-4.8-0.9-7.2-1.5s-4.4-1.7-6.1-3.3c-1.7-1.7-2.5-3.9-2.5-6.8v-3.5c0-3.3,0.9-5.9,2.8-7.8
		c1.9-1.9,4.5-2.8,7.8-2.8h8c3.3,0,5.9,0.9,7.8,2.8c1.9,1.9,2.9,4.5,2.9,7.8v1.8c0,0.7-0.3,1.1-0.9,1.1h-3.3c-0.6,0-0.9-0.4-0.9-1.1
		v-1.3c0-4.4-2.1-6.6-6.4-6.6H425c-4.3,0-6.4,2.3-6.4,6.8V36c0,2.4,1.6,4.1,4.8,5c1.4,0.4,3,0.7,4.8,1c1.7,0.3,3.5,0.7,5.2,1.2
		c1.8,0.5,3.3,1.1,4.8,1.9c1.4,0.7,2.6,1.9,3.5,3.4c0.9,1.5,1.3,3.3,1.3,5.5v3.2c0,3.3-1,5.9-2.9,7.8c-1.9,1.9-4.5,2.8-7.8,2.8H424
		c-3.3,0-5.9-0.9-7.8-2.8C414.3,63.2,413.4,60.6,413.4,57.3z"/>
</g>
<linearGradient id="SVGID_1_" gradientUnits="userSpaceOnUse" x1="-12.1353" y1="237.2553" x2="20.4421" y2="237.2553" gradientTransform="matrix(0.952 -0.306 0.306 0.952 -43.3388 -176.5692)">
	<stop  offset="0" style="stop-color:#F52F57"/>
	<stop  offset="1" style="stop-color:#9649CB"/>
</linearGradient>
<path class="st0" d="M49.4,50.4C49.4,50.3,49.3,50.3,49.4,50.4c-0.4-0.4-0.8-0.7-1.1-0.9c-1.6-1.3-4.1-3.3-5.1-5.2
	c-1.5-2.9-2-5.5-2.2-7.3c0-0.2,0-0.4,0-0.7c0-0.1,0-0.1,0-0.2c0,0,0,0,0,0c-0.7-6.2-5.6-11.4-12.1-12.2C21.3,23,14.4,28.4,13.5,36
	c-0.6,4.8,1.4,9.4,5,12.3l0,0c0,0,0,0,0,0c0.4,0.4,0.9,0.7,1.4,1c0.1,0,0.1,0.1,0.2,0.1c1.2,0.8,3.9,2.4,5.4,4.4
	c1.8,2.5,3.1,6.8,3.5,8.4c0,0,0,0,0,0c1.1,5,5.2,8.9,10.6,9.6c6.8,0.8,12.9-4,13.7-10.8C53.7,56.8,52.2,52.9,49.4,50.4L49.4,50.4z"
	/>
<linearGradient id="SVGID_2_" gradientUnits="userSpaceOnUse" x1="46.5566" y1="35.4585" x2="69.8718" y2="35.4585">
	<stop  offset="0" style="stop-color:#F52F57"/>
	<stop  offset="1" style="stop-color:#9649CB"/>
</linearGradient>

<circle class="st1" cx="58.2" cy="35.5" r="11.7"/>
  </symbol>

  <symbol id="user" viewBox="0 0 84 84">
    <g id="Calque_2" data-name="Calque 2">
      <g id="Calque_2-2" data-name="Calque 2">
        <path d="M42,0A42,42,0,1,0,84,42,42,42,0,0,0,42,0Zm0,76a33.77,33.77,0,0,1-16-4,18.91,18.91,0,0,1-.55-4.71c0-7.23,3.32-13.55,8.28-17h0a16.45,16.45,0,0,0,17-.31C56,53.37,59.5,59.87,59.5,67.32a19.78,19.78,0,0,1-.4,4.07A33.81,33.81,0,0,1,42,76ZM33.5,36a8.5,8.5,0,0,1,17,0A8.5,8.5,0,0,1,35,40.79,8.51,8.51,0,0,1,33.5,36ZM67.38,64.62a28.42,28.42,0,0,0-11-20.46A16.33,16.33,0,0,0,58.5,36,16.5,16.5,0,1,0,28,44.7,28.65,28.65,0,0,0,17.55,65.62a34,34,0,1,1,49.83-1Z"/>
      </g>
    </g>
  </symbol>
</svg>
